<svg width="24" height="24" viewBox="0 0 24 24" fill="none" xmlns="http://www.w3.org/2000/svg">
<path d="M15.0908 14.5382C15.542 14.2852 16.0583 14.1411 16.6083 14.1411H16.6101C16.6661 14.1411 16.6922 14.071 16.6511 14.0321C16.0792 13.4962 15.4259 13.0634 14.718 12.7513C14.7105 12.7474 14.7031 12.7455 14.6956 12.7416C15.8533 11.8637 16.6064 10.437 16.6064 8.82725C16.6064 6.16058 14.5409 4 11.9926 4C9.44424 4 7.3806 6.16058 7.3806 8.82725C7.3806 10.437 8.13372 11.8637 9.29324 12.7416C9.28578 12.7455 9.27833 12.7474 9.27087 12.7513C8.43759 13.1192 7.69005 13.6467 7.04691 14.3202C6.40748 14.9866 5.89842 15.7767 5.54811 16.6462C5.20345 17.4977 5.01744 18.4101 5.00005 19.3343C4.99955 19.3551 5.00304 19.3757 5.01031 19.3951C5.01758 19.4144 5.02849 19.4321 5.04239 19.4469C5.05628 19.4618 5.07289 19.4736 5.09123 19.4817C5.10958 19.4898 5.12928 19.4939 5.14918 19.4939H6.26582C6.34598 19.4939 6.41309 19.4258 6.41496 19.3421C6.45224 17.8394 7.02827 16.4321 8.04797 15.3655C9.10123 14.2618 10.5031 13.6545 11.9944 13.6545C13.0514 13.6545 14.0655 13.9601 14.9398 14.5324C14.9623 14.5471 14.9881 14.5554 15.0146 14.5564C15.0411 14.5574 15.0674 14.5512 15.0908 14.5382ZM11.9944 12.1752C11.1406 12.1752 10.3372 11.8268 9.73132 11.1942C9.43323 10.8837 9.19691 10.5148 9.03598 10.1085C8.87505 9.70231 8.79269 9.26685 8.79364 8.82725C8.79364 7.93382 9.12733 7.09294 9.73132 6.46034C10.3353 5.82774 11.1388 5.47932 11.9944 5.47932C12.8501 5.47932 13.6517 5.82774 14.2575 6.46034C14.5556 6.77078 14.7919 7.13975 14.9529 7.54597C15.1138 7.95219 15.1962 8.38765 15.1952 8.82725C15.1952 9.72068 14.8615 10.5616 14.2575 11.1942C13.6517 11.8268 12.8482 12.1752 11.9944 12.1752ZM18.8509 16.8078H17.285V15.1727C17.285 15.0871 17.2178 15.017 17.1358 15.017H16.0919C16.0099 15.017 15.9428 15.0871 15.9428 15.1727V16.8078H14.3768C14.2948 16.8078 14.2277 16.8779 14.2277 16.9635V18.0535C14.2277 18.1392 14.2948 18.2092 14.3768 18.2092H15.9428V19.8443C15.9428 19.9299 16.0099 20 16.0919 20H17.1358C17.2178 20 17.285 19.9299 17.285 19.8443V18.2092H18.8509C18.9329 18.2092 19 18.1392 19 18.0535V16.9635C19 16.8779 18.9329 16.8078 18.8509 16.8078Z" fill="#5E5E5E"/>
</svg>
