<svg width="25" height="24" viewBox="0 0 25 24" fill="none" xmlns="http://www.w3.org/2000/svg">
<path d="M5.5 19H14.5V15C14.5 14.7167 14.596 14.479 14.788 14.287C14.98 14.095 15.2173 13.9993 15.5 14H19.5V5H5.5V19ZM5.5 21C4.95 21 4.479 20.804 4.087 20.412C3.695 20.02 3.49934 19.5493 3.5 19V5C3.5 4.45 3.696 3.979 4.088 3.587C4.48 3.195 4.95067 2.99934 5.5 3H19.5C20.05 3 20.521 3.196 20.913 3.588C21.305 3.98 21.5007 4.45067 21.5 5V14.175C21.5 14.4417 21.45 14.696 21.35 14.938C21.25 15.18 21.1083 15.3923 20.925 15.575L16.075 20.425C15.8917 20.6083 15.6793 20.75 15.438 20.85C15.1967 20.95 14.9423 21 14.675 21H5.5ZM11.5 14H8.5C8.21667 14 7.979 13.904 7.787 13.712C7.595 13.52 7.49934 13.2827 7.5 13C7.5 12.7167 7.596 12.479 7.788 12.287C7.98 12.095 8.21734 11.9993 8.5 12H11.5C11.7833 12 12.021 12.096 12.213 12.288C12.405 12.48 12.5007 12.7173 12.5 13C12.5 13.2833 12.404 13.521 12.212 13.713C12.02 13.905 11.7827 14.0007 11.5 14ZM16.5 10H8.5C8.21667 10 7.979 9.904 7.787 9.712C7.595 9.52 7.49934 9.28267 7.5 9C7.5 8.71667 7.596 8.479 7.788 8.287C7.98 8.095 8.21734 7.99934 8.5 8H16.5C16.7833 8 17.021 8.096 17.213 8.288C17.405 8.48 17.5007 8.71734 17.5 9C17.5 9.28334 17.404 9.521 17.212 9.713C17.02 9.905 16.7827 10.0007 16.5 10Z" fill="#B8B8B8"/>
</svg>
